<?xml version="1.0" encoding="UTF-8" standalone="no"?>
<svg
   xmlns:dc="http://purl.org/dc/elements/1.1/"
   xmlns:cc="http://creativecommons.org/ns#"
   xmlns:rdf="http://www.w3.org/1999/02/22-rdf-syntax-ns#"
   xmlns:svg="http://www.w3.org/2000/svg"
   xmlns="http://www.w3.org/2000/svg"
   xmlns:sodipodi="http://sodipodi.sourceforge.net/DTD/sodipodi-0.dtd"
   xmlns:inkscape="http://www.inkscape.org/namespaces/inkscape"
   sodipodi:docname="cmc-356.svg"
   inkscape:version="1.0 (4035a4f, 2020-05-01)"
   id="svg8"
   version="1.1"
   viewBox="0 0 28.575 28.574986"
   height="108"
   width="108">
  <defs
     id="defs2" />
  <sodipodi:namedview
     inkscape:window-maximized="1"
     inkscape:window-y="25"
     inkscape:window-x="0"
     inkscape:window-height="926"
     inkscape:window-width="1680"
     showgrid="false"
     inkscape:document-rotation="0"
     inkscape:current-layer="layer1"
     inkscape:document-units="px"
     inkscape:cy="54"
     inkscape:cx="54"
     inkscape:zoom="6.6481481"
     inkscape:pageshadow="2"
     inkscape:pageopacity="0.0"
     borderopacity="1.0"
     bordercolor="#666666"
     pagecolor="#ffffff"
     id="base"
     units="px"
     lock-margins="false"
     fit-margin-top="32.7"
     fit-margin-left="9.3"
     fit-margin-right="9.3"
     fit-margin-bottom="32.7" />
  <metadata
     id="metadata5">
    <rdf:RDF>
      <cc:Work
         rdf:about="">
        <dc:format>image/svg+xml</dc:format>
        <dc:type
           rdf:resource="http://purl.org/dc/dcmitype/StillImage" />
        <dc:title />
      </cc:Work>
    </rdf:RDF>
  </metadata>
  <g
     transform="translate(-42.749741,-64.254276)"
     id="layer1"
     inkscape:groupmode="layer"
     inkscape:label="레이어 1">
    <path
       style="fill:#606060;stroke-width:0.0512108"
       d="m 46.194548,84.190733 c -0.348237,-0.02517 -0.52523,-1.002218 -0.234261,-1.293188 0.05966,-0.05966 22.244443,-0.06706 22.304065,-0.0074 0.133199,0.133201 0.130244,1.068683 -0.0038,1.202728 -0.04171,0.04171 -2.424407,0.0614 -8.750378,0.07232 -4.781189,0.0082 -9.684,0.02094 -10.895137,0.02819 -1.211137,0.0073 -2.300357,0.0061 -2.420488,-0.0026 z m -0.900283,-0.513159 c -0.09152,-0.101121 -0.11451,-0.264825 -0.0372,-0.264825 0.08252,0 0.208501,0.156922 0.208501,0.259714 0,0.124086 -0.06196,0.125935 -0.171301,0.0051 z m 23.421038,-0.07666 c 0,-0.125707 0.213642,-0.367139 0.272656,-0.308125 0.06874,0.06874 0.03231,0.220533 -0.07747,0.32281 -0.145533,0.135584 -0.195187,0.131848 -0.195187,-0.01469 z M 47.185616,82.055661 c -0.09892,-0.106731 -0.165612,-0.128026 -0.400972,-0.128026 -0.424698,0 -0.418758,0.01758 -0.448493,-1.326406 -0.03433,-1.551633 -0.09558,-1.569234 -0.374077,-0.1075 -0.189594,0.995099 -0.219798,1.121702 -0.255546,1.071161 -0.0788,-0.111397 0.253535,-3.12744 0.374776,-3.401255 0.107473,-0.242719 0.203437,-1.122529 0.204137,-1.871555 6e-4,-0.651664 -0.01025,-0.625858 0.913495,-2.171434 0.369469,-0.618183 0.678258,-1.143459 0.686199,-1.16728 0.0079,-0.02382 4.162182,-0.04419 9.231649,-0.04526 l 9.217214,-0.002 0.260042,0.452281 c 1.146902,1.994757 1.328937,2.394452 1.284371,2.820093 -0.04224,0.403479 0.122215,1.79271 0.231969,1.959508 0.101608,0.154415 0.390141,2.58197 0.395644,3.328706 0.0017,0.224713 -0.07068,0.114398 -0.117539,-0.179239 -0.230281,-1.443183 -0.327348,-1.843592 -0.446927,-1.843592 -0.05793,0 -0.07602,0.212448 -0.09684,1.137735 -0.02943,1.307866 -0.02427,1.293209 -0.469877,1.334116 -0.174128,0.01599 -0.305793,0.05967 -0.364294,0.120878 -0.126493,0.132332 -0.451787,0.128606 -0.574128,-0.0066 -0.09204,-0.101699 -0.157728,-0.102421 -9.308121,-0.102421 h -9.21543 l -0.152152,0.128026 c -0.08758,0.07369 -0.216722,0.128027 -0.3043,0.128027 -0.09651,0 -0.195537,-0.04682 -0.2708,-0.128027 z m 16.061349,-1.613142 c 0.0437,-1.063325 0.02884,-1.208219 -0.127792,-1.246364 -0.226408,-0.05514 -8.098278,-0.02893 -8.165892,0.02718 -0.0738,0.06125 -0.08204,0.439882 -0.03125,1.435836 l 0.03325,0.651942 3.123159,-3.87e-4 c 1.717735,-1.94e-4 3.135787,0.01223 3.151223,0.02767 0.01545,0.01545 0.467355,0.02182 1.004267,0.01419 l 0.976201,-0.01386 z m -7.983971,0.664907 c -0.24719,-0.09854 -0.296044,-0.444806 -0.08606,-0.609978 0.184538,-0.145159 0.306643,-0.133339 0.487132,0.04715 l 0.15329,0.153288 0.128983,-0.153288 c 0.152948,-0.181767 0.268719,-0.191317 0.53116,-0.04382 l 0.194778,0.109471 0.139168,-0.109471 c 0.189533,-0.149086 0.314057,-0.137584 0.484374,0.04474 l 0.144056,0.154212 0.154211,-0.154212 c 0.183839,-0.183838 0.258897,-0.189976 0.515718,-0.04217 l 0.194679,0.112044 0.14244,-0.112044 c 0.189655,-0.149181 0.312162,-0.14123 0.484864,0.03147 l 0.143513,0.143513 0.16062,-0.143513 c 0.193207,-0.17263 0.259963,-0.176888 0.510701,-0.03258 l 0.19275,0.110933 0.158949,-0.117518 c 0.199964,-0.147839 0.389589,-0.110952 0.518387,0.100839 l 0.09197,0.151225 0.112288,-0.151875 c 0.156681,-0.211925 0.313008,-0.238291 0.562265,-0.09484 0.188685,0.108593 0.213385,0.111707 0.29933,0.03772 0.200772,-0.172833 0.534686,-0.115375 0.604309,0.103984 0.03251,0.102428 0.03912,0.10062 0.160769,-0.04395 0.312079,-0.370886 0.869687,-0.06061 0.60822,0.338435 -0.163205,0.249083 -0.40726,0.253645 -0.611077,0.01142 -0.118323,-0.140621 -0.125539,-0.142554 -0.157401,-0.04216 -0.06442,0.202961 -0.357976,0.290862 -0.534797,0.160134 -0.183919,-0.135979 -0.188915,-0.136149 -0.427359,-0.01458 -0.232768,0.118672 -0.35886,0.09163 -0.51743,-0.110991 -0.119365,-0.152519 -0.121546,-0.153079 -0.157311,-0.04039 -0.07093,0.223484 -0.402572,0.2869 -0.602497,0.115205 -0.07995,-0.06866 -0.112003,-0.06672 -0.300392,0.01823 -0.27517,0.124085 -0.402817,0.11001 -0.550261,-0.06067 l -0.120781,-0.139817 -0.08406,0.105744 c -0.182848,0.230005 -0.445791,0.252966 -0.611424,0.05339 -0.05406,-0.06514 -0.09247,-0.05972 -0.291837,0.04122 -0.263563,0.133431 -0.394957,0.116387 -0.541794,-0.07029 l -0.103854,-0.132028 -0.117102,0.14686 c -0.144588,0.18133 -0.393766,0.199665 -0.552758,0.04068 -0.105122,-0.105124 -0.107782,-0.105211 -0.266011,-0.0087 -0.227228,0.138559 -0.421326,0.124873 -0.574601,-0.04051 l -0.128226,-0.138358 -0.112581,0.133943 c -0.132112,0.15718 -0.273665,0.203979 -0.429302,0.141936 z m 1.648204,-0.92919 c -0.05633,-0.03098 -0.140876,-0.104431 -0.187873,-0.163229 l -0.08545,-0.106903 -0.13918,0.13918 c -0.207512,0.207512 -0.454283,0.186397 -0.578445,-0.04949 -0.189727,-0.360452 0.274905,-0.623976 0.560713,-0.318019 l 0.148573,0.159048 0.153736,-0.164574 c 0.234487,-0.251021 0.563215,-0.144851 0.563215,0.181901 0,0.257727 -0.235484,0.431971 -0.43529,0.322089 z m 1.638746,0 c -0.05633,-0.03098 -0.140873,-0.104431 -0.18787,-0.163229 l -0.08545,-0.106903 -0.13918,0.13918 c -0.18282,0.182821 -0.389769,0.184028 -0.53208,0.0031 -0.277325,-0.352558 0.196812,-0.696389 0.517746,-0.375455 l 0.154211,0.154211 0.149218,-0.159737 c 0.162908,-0.174394 0.365114,-0.177692 0.494684,-0.0081 0.199838,0.26161 -0.09333,0.669752 -0.371279,0.516895 z m 0.781617,-0.02072 c -0.177875,-0.09652 -0.230279,-0.290138 -0.122884,-0.454043 0.148594,-0.226782 0.404084,-0.21272 0.59987,0.03302 0.0793,0.09952 0.08371,0.0984 0.244541,-0.06244 0.248464,-0.248464 0.570898,-0.131556 0.570898,0.206995 0,0.2985 -0.364828,0.406142 -0.595319,0.175652 l -0.129763,-0.129764 -0.176956,0.155369 c -0.202081,0.177432 -0.202015,0.177418 -0.390387,0.07521 z m 1.66705,0.02859 c -0.25204,-0.101549 -0.276819,-0.439257 -0.04345,-0.592167 0.14992,-0.09823 0.292785,-0.0626 0.456388,0.113842 l 0.118624,0.127932 0.157498,-0.157496 c 0.254126,-0.254125 0.575062,-0.143581 0.575062,0.198077 0,0.29734 -0.367128,0.408594 -0.595317,0.180405 l -0.129764,-0.129764 -0.176955,0.155369 c -0.192206,0.168758 -0.197266,0.170208 -0.362086,0.103802 z m 1.608402,-0.03228 c -0.241539,-0.126554 -0.231942,-0.450165 0.0173,-0.583558 0.199773,-0.106915 0.457791,0.06479 0.457791,0.304649 0,0.246224 -0.253475,0.395029 -0.475095,0.278909 z m -7.427208,-0.04172 c -0.129978,-0.129979 -0.153179,-0.278637 -0.06459,-0.413843 0.159812,-0.243904 0.493704,-0.207013 0.59751,0.06602 0.105764,0.278182 -0.322832,0.557916 -0.532922,0.347826 z m 11.154193,0.151171 v -1.075429 h -1.229061 -1.229061 l -0.01392,1.022772 c -0.0077,0.562525 -0.0025,1.052648 0.01155,1.089161 0.02009,0.05234 0.283059,0.06348 1.242983,0.05266 l 1.21751,-0.01372 z M 64.92616,81.08321 C 64.87787,81.02503 64.87335,80.845957 64.9071,80.327851 l 0.04422,-0.6791 0.573436,-0.01446 c 0.546442,-0.01378 0.576286,-0.0091 0.63399,0.09869 0.06447,0.120472 0.04374,1.256652 -0.02497,1.367816 -0.05836,0.09444 -1.127555,0.07886 -1.207604,-0.01759 z m -13.3665,-0.354763 c 0,-0.342496 -0.02112,-0.591728 -0.05099,-0.601729 -0.02804,-0.0094 -0.85766,-0.01072 -1.843592,-0.003 l -1.792604,0.01409 v 0.58764 0.587641 h 1.843592 1.843591 z m -0.59838,0.379457 c -0.344013,-0.138607 -0.233123,-0.716595 0.137483,-0.716595 0.04874,0 0.149329,0.04776 0.223542,0.106139 0.331009,0.260371 0.03064,0.768262 -0.361025,0.610456 z m -2.880242,-0.134577 c -0.126835,-0.161244 -0.133364,-0.264305 -0.02642,-0.416991 0.169626,-0.242175 0.637232,-0.09693 0.637232,0.197937 0,0.154268 -0.202251,0.353987 -0.358476,0.353987 -0.09694,0 -0.181956,-0.04546 -0.252337,-0.134933 z m 0.921796,0 c -0.05838,-0.07421 -0.106139,-0.177914 -0.106139,-0.230448 0,-0.273009 0.478547,-0.413099 0.637232,-0.186543 0.253562,0.36201 -0.258247,0.763859 -0.531093,0.416991 z m 0.921795,0 c -0.05838,-0.07421 -0.106138,-0.163286 -0.106138,-0.197937 0,-0.282731 0.477628,-0.44692 0.637232,-0.219054 0.253561,0.36201 -0.258247,0.763859 -0.531094,0.416991 z m 4.310286,-1.132535 c 0.03094,-1.742098 0.152172,-1.533303 -0.916011,-1.57764 -1.174099,-0.04874 -1.144713,-0.05849 -1.144713,0.379821 0,1.447514 0.122458,2.177125 0.147271,0.877449 0.006,-0.312619 0.01505,-0.336765 0.147191,-0.391417 0.276176,-0.114217 1.022174,-0.109636 1.257429,0.0077 0.08459,0.0422 0.19302,0.07673 0.240952,0.07673 0.09899,0 0.152158,0.379409 0.152806,1.090417 l 3.68e-4,0.399072 -0.94484,-0.01498 c -1.058892,-0.0168 -0.998902,-0.03919 -1.000474,0.373359 -9.88e-4,0.259239 -0.03209,0.251788 1.050729,0.251788 h 0.983147 l 0.02615,-1.472313 z m -2.664943,-0.89619 c 0.02525,-0.751003 0.206963,-0.68319 -1.8681,-0.697184 -2.054461,-0.01386 -1.860785,-0.08728 -1.839003,0.697184 l 0.016,0.576121 h 1.835866 1.835866 z m -0.638284,0.392128 c -0.02148,-0.02156 -0.684245,-0.03417 -1.47282,-0.02802 l -1.433772,0.01117 -0.05481,-0.142831 c -0.0343,-0.08936 -0.03877,-0.219512 -0.01196,-0.347675 l 0.04286,-0.204843 1.45917,-0.01744 c 0.802544,-0.0096 1.556553,-0.02052 1.675576,-0.02428 0.484599,-0.01533 0.521047,0.683758 0.03965,0.760481 -0.112664,0.01796 -0.222415,0.015 -0.243891,-0.0066 z m 15.439285,-0.90808 c 0.05589,-0.08787 0.04839,-0.791402 -0.0088,-0.826756 -0.09757,-0.0603 -2.317167,-0.03132 -2.392548,0.03124 -0.133501,0.110797 -0.07137,0.826617 0.07475,0.861214 0.233911,0.05538 2.286472,-0.0026 2.326618,-0.0657 z m -10.514741,-0.0028 c 0.04067,-0.04901 0.05434,-0.37424 0.04468,-1.062626 l -0.01393,-0.992005 H 55.40047 54.913967 l -0.01393,0.992007 c -0.01658,1.18097 -0.03766,1.133243 0.500433,1.133243 0.275056,0 0.415164,-0.02171 0.455756,-0.07062 z m -0.744725,-0.317431 c -0.182477,-0.278494 0.141645,-0.641762 0.429123,-0.480951 0.338871,0.189562 0.24206,0.612948 -0.140154,0.612948 -0.161094,0 -0.220161,-0.02698 -0.288969,-0.131997 z m 0.05619,-0.864289 c -0.299635,-0.299635 0.07617,-0.705507 0.426225,-0.460322 0.188606,0.132106 0.14926,0.409179 -0.07486,0.527145 -0.159863,0.08414 -0.20992,0.07463 -0.351368,-0.06682 z m 4.788837,1.17758 c 0.03634,-0.0438 0.05042,-0.40499 0.04124,-1.058486 l -0.01394,-0.992005 H 58.26828 56.552716 l -0.01394,0.992007 c -0.0091,0.650117 0.005,1.014787 0.04093,1.05811 0.08023,0.09667 3.296597,0.09703 3.376813,3.87e-4 z m -3.054793,-0.182126 c -0.236931,-0.09445 -0.282456,-0.352047 -0.0953,-0.539207 0.157155,-0.157156 0.272725,-0.158396 0.498255,-0.0053 l 0.177349,0.120353 0.139917,-0.120353 c 0.180448,-0.155213 0.293758,-0.151852 0.491549,0.01458 l 0.160357,0.13493 0.140837,-0.13493 c 0.177432,-0.16999 0.315412,-0.170619 0.515387,-0.0024 l 0.157562,0.13258 0.157561,-0.13258 c 0.266372,-0.224138 0.576461,-0.105605 0.576461,0.220355 0,0.321689 -0.354442,0.446707 -0.603394,0.212829 l -0.124592,-0.117048 -0.137952,0.108513 c -0.178543,0.140442 -0.41769,0.139249 -0.568934,-0.0028 l -0.118526,-0.111347 -0.127609,0.119884 c -0.161642,0.151856 -0.404297,0.156987 -0.549662,0.01162 -0.105579,-0.105581 -0.111531,-0.105958 -0.240406,-0.01525 -0.179992,0.126683 -0.315832,0.158643 -0.448864,0.105609 z m -0.109646,-0.988275 c -0.339951,-0.361861 0.1875,-0.765132 0.539867,-0.412765 l 0.13445,0.134451 0.09794,-0.134451 c 0.1336,-0.183402 0.401725,-0.185257 0.582947,-0.004 l 0.130416,0.130416 0.120866,-0.130416 c 0.207293,-0.223673 0.689076,-0.08898 0.689076,0.192649 0,0.298607 -0.470735,0.438057 -0.687951,0.203799 l -0.128773,-0.138878 -0.144958,0.138878 c -0.183536,0.175839 -0.350809,0.176237 -0.533435,0.0013 l -0.143632,-0.137607 -0.143632,0.137608 c -0.17636,0.168963 -0.365761,0.176006 -0.513182,0.01908 z m 2.458122,0 c -0.13932,-0.148299 -0.141586,-0.290604 -0.0069,-0.435138 0.20715,-0.222348 0.612537,-0.07622 0.612537,0.220794 0,0.300603 -0.393672,0.439938 -0.605604,0.214345 z m 3.975279,1.183711 c 0.07094,-0.07094 0.08795,-1.917154 0.01868,-2.026303 -0.03187,-0.05021 -0.330676,-0.06182 -1.317896,-0.05121 l -1.276683,0.01372 -0.01456,0.947401 c -0.008,0.521071 -0.0017,0.999252 0.01378,1.062625 l 0.02833,0.115224 h 1.243448 c 0.898846,0 1.26048,-0.01703 1.304902,-0.06145 z m -0.674199,-0.249528 c -0.259355,-0.204008 -0.05185,-0.664274 0.264528,-0.586742 0.29938,0.07336 0.399474,0.359498 0.196697,0.562277 -0.158348,0.158345 -0.28264,0.16494 -0.461225,0.02447 z m -1.704174,-0.07707 c -0.182478,-0.278494 0.141646,-0.641762 0.429123,-0.48095 0.33887,0.18956 0.242061,0.612946 -0.140154,0.612946 -0.161094,0 -0.220161,-0.02698 -0.288969,-0.131996 z m 0.09552,-0.818309 c -0.234232,-0.164061 -0.09082,-0.586021 0.199169,-0.586021 0.148932,0 0.314348,0.175163 0.314348,0.332871 0,0.269211 -0.287935,0.411155 -0.513517,0.25315 z m 1.638746,0 c -0.238143,-0.166803 -0.08994,-0.586021 0.207172,-0.586021 0.15285,0 0.356677,0.238615 0.317879,0.372131 -0.07486,0.257606 -0.320039,0.357485 -0.525051,0.21389 z M 54.248231,76.96018 v -0.588925 l -0.844979,-0.03132 c -4.858312,-0.180099 -5.575934,-0.0981 -5.543308,0.633436 l 0.02685,0.602113 3.180716,-0.01319 3.180717,-0.01319 z m -3.395129,0.403502 c -0.09286,-0.02706 -0.181669,-0.08262 -0.197345,-0.123475 -0.02358,-0.06144 -0.0509,-0.05665 -0.15813,0.02769 -0.17184,0.135169 -0.471942,0.133233 -0.646625,-0.0042 l -0.134933,-0.106137 -0.134934,0.106138 c -0.183175,0.144087 -0.543213,0.144945 -0.686521,0.0016 l -0.104502,-0.104503 -0.132853,0.104503 c -0.403262,0.317205 -0.939079,-0.09141 -0.65385,-0.498634 0.108827,-0.155373 0.487707,-0.160919 0.639268,-0.0094 l 0.104459,0.104459 0.146698,-0.104459 c 0.212279,-0.151156 0.517081,-0.139592 0.682569,0.0259 l 0.130355,0.130355 0.130355,-0.130355 c 0.17778,-0.17778 0.505877,-0.182638 0.659854,-0.0098 l 0.107406,0.120584 0.111063,-0.129119 c 0.269901,-0.313781 0.741803,-0.138488 0.741803,0.275549 0,0.307231 -0.232337,0.431514 -0.604137,0.323168 z m 2.573428,-0.119514 c -0.231651,-0.231651 -0.08863,-0.540042 0.250444,-0.540042 0.320398,0 0.455017,0.335751 0.222283,0.554393 -0.15528,0.145878 -0.317421,0.140955 -0.472727,-0.01435 z m -0.911531,-0.01916 c -0.279822,-0.3092 0.183071,-0.713953 0.478566,-0.418458 0.12304,0.12304 0.129997,0.245106 0.0227,0.398293 -0.100502,0.143486 -0.379507,0.15471 -0.501268,0.02016 z m -7.236586,1.141312 c -0.08167,-0.212837 0.0633,-0.778893 0.171723,-0.670475 0.04127,0.04127 0.03104,0.517167 -0.01418,0.659647 -0.03521,0.110935 -0.116972,0.116556 -0.157544,0.01082 z m 23.467975,-0.002 c -0.01709,-0.04455 -0.03108,-0.204506 -0.03108,-0.355453 0,-0.427491 0.148769,-0.431108 0.187588,-0.0046 0.03163,0.347566 -0.07083,0.583269 -0.156503,0.360013 z"
       id="path3861" />
    <path
       sodipodi:nodetypes="csssssssscccsssssssccccccsccccccsscsscsscccscssssscscccsssscscscccsscsscssccsssscssccssssscssccccsccssssssssssssssssssssssscssccssssssssscssccsssssssssccscsccssssccscccscccsssssccsscccssccccccccscccssccccccsssssscsscsccssccsscsscssssssssssccscccsccccccccccccssssssscssccsccssssscssccsssssscssssccsccccccccccssssssssssssssssssscsssscscssssssssssscsccccsscccssccccsccssscscsscsss"
       style="fill:#c02030;stroke-width:0.0512108"
       d="m 47.197162,82.004451 c -0.09204,-0.10586 -0.1574,-0.128028 -0.377472,-0.128028 -0.381957,0 -0.377122,0.0151 -0.420031,-1.311733 -0.03869,-1.196413 -0.165783,-1.650511 -0.296694,-1.060093 -0.249461,1.12509 -0.294898,0.977626 -0.132736,-0.430781 0.07387,-0.64159 0.108771,-0.800408 0.196927,-0.896189 0.121414,-0.131917 0.149866,-0.371012 0.201098,-1.689929 0.03858,-0.99314 -0.160765,-0.898354 1.785883,-0.849174 0.901312,0.02277 5.625515,0.03704 10.49823,0.0317 6.113951,-0.0067 8.899157,0.007 8.987508,0.04427 l 0.128027,0.05397 -0.01796,0.698282 c -0.01,0.388566 0.0023,0.698281 0.02773,0.698281 0.02513,0 0.06985,0.208008 0.09937,0.46224 0.04067,0.350255 0.07858,0.485445 0.15648,0.558018 0.106268,0.099 0.18678,0.598109 0.252596,1.565889 0.03016,0.443498 -0.04992,0.461553 -0.113571,0.02561 -0.04636,-0.317543 -0.107699,-0.419066 -0.241666,-0.399993 -0.109722,0.01562 -0.112482,0.03691 -0.151349,1.167507 -0.04567,1.328561 -0.03905,1.310204 -0.46919,1.300049 -0.242249,-0.0057 -0.280795,0.0077 -0.329764,0.115224 -0.07715,0.169328 -0.384361,0.170928 -0.540165,0.0028 l -0.110182,-0.118886 -9.241676,0.02166 -9.241674,0.02166 -0.117297,0.122833 c -0.157318,0.16474 -0.386601,0.162503 -0.532413,-0.0052 z m 15.069384,-0.651749 0.943587,-0.01399 0.03467,-0.942862 0.03467,-0.942862 0.198067,-0.183777 c 0.108937,-0.101079 0.340869,-0.316286 0.515404,-0.47824 l 0.317338,-0.294464 h 1.023686 c 1.180972,0 1.095401,0.04531 1.066782,-0.564898 l -0.01554,-0.331291 -0.524912,-0.01459 c -0.656847,-0.01826 -0.680642,0.05046 0.33287,-0.961319 L 67.05095,75.768095 66.123404,76.6458 65.195856,77.523506 H 64.58054 c -0.748579,0 -0.739871,-0.0069 -0.719622,0.568988 0.01423,0.404476 0.02113,0.426733 0.141191,0.454943 0.119601,0.0281 0.106211,0.04895 -0.254649,0.396478 -0.371318,0.357597 -0.383175,0.364359 -0.471879,0.269147 -0.110092,-0.118168 -8.227991,-0.161704 -8.368755,-0.04488 -0.0726,0.06025 -0.106844,1.937265 -0.03859,2.115134 0.02786,0.07261 0.350228,0.08109 3.111061,0.08179 1.803168,3.87e-4 3.111108,0.02047 3.155075,0.04828 0.04572,0.02892 0.0973,0.02907 0.131841,3.87e-4 0.03121,-0.0259 0.481356,-0.05339 1.000328,-0.06108 z m -7.093615,-0.409469 c -0.214045,-0.305591 0.199574,-0.632632 0.450057,-0.355851 0.166073,0.183508 0.0305,0.469668 -0.222512,0.469668 -0.0947,0 -0.176472,-0.0409 -0.227545,-0.113817 z m 0.838927,0.0082 c -0.13553,-0.135527 -0.11078,-0.291839 0.06716,-0.4242 l 0.140829,-0.104757 0.140829,0.104683 c 0.184988,0.137506 0.210071,0.339843 0.05554,0.448077 -0.15707,0.110018 -0.277644,0.10292 -0.404365,-0.0238 z m 0.79982,-0.0082 c -0.10596,-0.151281 -0.100543,-0.261151 0.01817,-0.368589 0.139565,-0.126305 0.367745,-0.08687 0.460766,0.07962 0.167011,0.298929 -0.282146,0.56993 -0.478939,0.288969 z m 0.824408,0.02017 c -0.177124,-0.195721 -0.06585,-0.46967 0.190772,-0.46967 0.299707,0 0.434631,0.262851 0.236583,0.460898 -0.127812,0.127813 -0.316126,0.131678 -0.427355,0.0088 z m 0.814341,-0.02017 c -0.214044,-0.305591 0.199573,-0.632632 0.450057,-0.355851 0.166072,0.183508 0.0305,0.469668 -0.222512,0.469668 -0.0947,0 -0.176472,-0.0409 -0.227545,-0.113817 z m 0.824408,0.02017 c -0.177641,-0.19629 -0.05061,-0.46967 0.218231,-0.46967 0.280423,0 0.415722,0.330912 0.197728,0.4836 -0.15151,0.106121 -0.312184,0.100741 -0.415959,-0.01394 z m 0.819373,0 c -0.111188,-0.122863 -0.107567,-0.279515 0.0089,-0.384915 0.137867,-0.124768 0.350046,-0.107402 0.444242,0.03636 0.191575,0.292379 -0.218511,0.607814 -0.45314,0.348554 z m 0.819374,0 c -0.177125,-0.195721 -0.06585,-0.46967 0.190771,-0.46967 0.299707,0 0.434631,0.262851 0.236584,0.460898 -0.127813,0.127813 -0.316126,0.131678 -0.427355,0.0088 z m 0.794759,-0.02487 c -0.140545,-0.149601 -0.139556,-0.195599 0.0072,-0.333445 0.229331,-0.215444 0.496006,-0.119339 0.496006,0.178751 0,0.276737 -0.301462,0.369416 -0.503181,0.154694 z m 0.843989,0.02487 c -0.176224,-0.194726 -0.0659,-0.46967 0.188467,-0.46967 0.202535,0 0.290099,0.07798 0.290099,0.258361 0,0.263123 -0.308429,0.399309 -0.478566,0.211309 z m -5.678891,-0.805884 c -0.38254,-0.207565 -0.08739,-0.763143 0.305791,-0.575604 0.208059,0.09924 0.227095,0.39642 0.03507,0.547469 -0.161238,0.126829 -0.159264,0.126667 -0.340859,0.02814 z m 1.638749,0 c -0.343872,-0.186584 -0.137461,-0.701999 0.242901,-0.606535 0.257218,0.06456 0.313664,0.408725 0.09522,0.580558 -0.158257,0.124485 -0.156776,0.124371 -0.338116,0.02598 z m 0.819373,0 c -0.394412,-0.214006 -0.08194,-0.767529 0.316858,-0.561298 0.221109,0.114339 0.230802,0.33925 0.02268,0.526233 -0.149506,0.13432 -0.155472,0.134936 -0.339537,0.03507 z m 1.66705,0.02859 c -0.25204,-0.101549 -0.276819,-0.439257 -0.04345,-0.592167 0.34409,-0.225457 0.677772,0.282339 0.353265,0.537597 -0.149744,0.117788 -0.151947,0.118175 -0.309815,0.05457 z m 1.608402,-0.03228 c -0.241539,-0.126554 -0.231942,-0.450165 0.0173,-0.583558 0.199773,-0.106915 0.457791,0.06479 0.457791,0.304649 0,0.246224 -0.253475,0.395029 -0.475095,0.278909 z m -7.427208,-0.04172 c -0.129978,-0.129979 -0.153179,-0.278637 -0.06459,-0.413843 0.159812,-0.243904 0.493704,-0.207013 0.59751,0.06602 0.105764,0.278182 -0.322832,0.557916 -0.532922,0.347826 z m 0.819375,0 c -0.197758,-0.197757 -0.11997,-0.504144 0.144874,-0.570615 0.153612,-0.03855 0.360113,0.08231 0.410187,0.240071 0.08294,0.261314 -0.360325,0.525279 -0.555061,0.330544 z m 1.606184,-0.06172 c -0.258353,-0.328442 0.189383,-0.700596 0.486011,-0.403968 0.153362,0.153361 0.157076,0.230287 0.01956,0.405108 -0.143012,0.18181 -0.362052,0.181316 -0.505571,-0.0012 z m 2.455302,0.03365 c -0.144221,-0.144222 -0.129634,-0.329638 0.03619,-0.460076 0.234828,-0.184717 0.527128,-0.04216 0.527128,0.257081 0,0.278202 -0.358814,0.407501 -0.56332,0.202995 z m 1.638748,0 c -0.142921,-0.142922 -0.129645,-0.329631 0.03251,-0.457182 0.24517,-0.19285 0.530808,-0.05863 0.530808,0.249434 0,0.277146 -0.360843,0.410223 -0.563318,0.207748 z M 51.611951,81.3131 c 0.06574,-0.10399 0.06342,-1.057339 -0.0029,-1.181217 -0.05088,-0.09507 -0.125958,-0.09906 -1.865538,-0.09906 -2.145726,0 -1.973795,-0.05499 -1.972775,0.630992 0.0011,0.716649 -0.01427,0.693841 0.478456,0.711311 1.372709,0.04867 3.315412,0.01283 3.36274,-0.06203 z m -3.474492,-0.323369 c -0.234045,-0.24913 -0.103117,-0.564801 0.2232,-0.538147 0.267368,0.02184 0.378202,0.212376 0.258353,0.444138 -0.124768,0.241276 -0.309351,0.277309 -0.481553,0.09401 z m 0.982724,0.05863 c -0.340072,-0.164667 -0.216502,-0.603206 0.170493,-0.605062 0.302343,-0.0014 0.419024,0.317506 0.197271,0.539258 -0.136058,0.13606 -0.199301,0.147375 -0.367764,0.0658 z m 0.830887,-0.09767 c -0.1599,-0.19003 -0.16078,-0.20246 -0.02644,-0.373245 0.139007,-0.176718 0.414436,-0.187669 0.531094,-0.02112 0.252287,0.36019 -0.221722,0.730606 -0.504653,0.394362 z m 0.920147,-0.0075 c -0.104947,-0.149833 -0.100701,-0.261008 0.01393,-0.364748 0.192733,-0.174423 0.520879,-0.04477 0.520879,0.205802 0,0.252492 -0.388429,0.367935 -0.534811,0.158946 z m 3.416156,0.357068 c 0.057,-0.148969 0.04007,-2.969657 -0.01825,-3.039924 -0.06137,-0.07395 -1.884645,-0.109313 -2.065137,-0.04005 -0.08443,0.0324 -0.129555,3.027156 -0.04686,3.109847 0.06769,0.06769 2.103846,0.03914 2.130252,-0.02987 z m -1.394392,-0.819373 c -0.751682,-0.385443 -0.316522,-1.533363 0.496206,-1.30896 0.648114,0.178954 0.749979,1.02749 0.157764,1.314174 -0.286041,0.138472 -0.375143,0.137762 -0.65397,-0.0052 z M 66.333998,80.26324 v -1.075429 h -1.229061 -1.229061 l -0.01392,1.022773 c -0.0077,0.562524 -0.0025,1.052647 0.01155,1.089161 0.02009,0.05234 0.283059,0.06348 1.242983,0.05266 l 1.21751,-0.01372 z m -1.321269,0.812517 c -0.05026,-0.05026 -0.04339,-1.259007 0.0076,-1.339388 0.03064,-0.0483 0.177926,-0.06202 0.549733,-0.05121 l 0.507877,0.01477 v 0.691348 0.691346 l -0.514698,0.01448 c -0.283082,0.008 -0.530817,-0.0015 -0.550516,-0.02134 z M 51.630998,79.490924 c 0.05915,-0.15414 0.03413,-1.175733 -0.03037,-1.240235 -0.08811,-0.08811 -3.681014,-0.08811 -3.76912,0 -0.08452,0.08452 -0.08452,1.175265 0,1.259786 0.105259,0.10526 3.758809,0.08646 3.799489,-0.01955 z m -3.530399,-0.30075 c -0.210811,-0.21081 -0.06103,-0.591252 0.232776,-0.591252 0.138167,0 0.358476,0.22031 0.358476,0.358475 0,0.05889 -0.05656,0.163644 -0.125699,0.232777 -0.06914,0.06914 -0.173884,0.125701 -0.232777,0.125701 -0.05889,0 -0.163642,-0.05657 -0.232776,-0.125701 z m 0.921795,0 c -0.224499,-0.224498 -0.09068,-0.557111 0.224136,-0.557111 0.33359,0 0.485404,0.348989 0.248592,0.571463 -0.15528,0.145877 -0.317421,0.140955 -0.472728,-0.01436 z m 0.907445,0.0072 c -0.229109,-0.243875 -0.0844,-0.547217 0.261059,-0.547217 0.133228,0 0.207446,0.0319 0.264825,0.113817 0.255045,0.364127 -0.221784,0.757099 -0.525884,0.4334 z m 0.912869,-0.03511 c -0.118085,-0.118085 -0.124918,-0.168838 -0.04354,-0.323435 0.165829,-0.315052 0.606864,-0.219289 0.606864,0.131767 0,0.277842 -0.356014,0.398973 -0.56332,0.191668 z m 5.059634,-0.675984 c 0.04375,-0.04375 0.06145,-0.360352 0.06145,-1.099232 0,-1.207336 0.03129,-1.143804 -0.563319,-1.143804 -0.594609,0 -0.56332,-0.06353 -0.56332,1.143804 0,1.225528 -0.03147,1.160685 0.56332,1.160685 0.274263,0 0.463596,-0.02318 0.501866,-0.06145 z m -0.734774,-0.421616 c -0.08674,-0.132374 -0.05487,-0.254937 0.09963,-0.383155 0.198799,-0.164989 0.513101,0.158939 0.368439,0.379721 -0.113717,0.173554 -0.355437,0.175328 -0.468066,0.0034 z m 1.53e-4,-0.82048 c -0.299635,-0.299635 0.07617,-0.705508 0.426225,-0.460322 0.188607,0.132105 0.14926,0.409178 -0.07486,0.527144 -0.159863,0.08415 -0.209919,0.07463 -0.351368,-0.06682 z m 4.836564,1.232986 c 0.04077,-0.04912 0.05434,-0.387542 0.04468,-1.113836 l -0.0139,-1.043274 h -1.766776 -1.766774 l -0.01388,1.043274 c -0.0097,0.726294 0.0039,1.064712 0.04468,1.113836 0.08651,0.104236 3.385449,0.104236 3.471958,0 z m -3.197947,-0.412506 c -0.163323,-0.249262 0.140206,-0.527857 0.380132,-0.348904 0.168568,0.125727 0.194591,0.248018 0.07978,0.374886 -0.127452,0.140834 -0.359186,0.127742 -0.459909,-0.02598 z m 0.818665,0.01867 c -0.08747,-0.09666 -0.08915,-0.11793 -0.01914,-0.243251 0.109932,-0.19679 0.368623,-0.216975 0.485946,-0.03792 0.186226,0.284221 -0.234631,0.537716 -0.466804,0.281169 z m 0.816312,-0.02443 c -0.152249,-0.232361 0.09374,-0.513073 0.335992,-0.383423 0.175129,0.09372 0.227403,0.246009 0.133594,0.389179 -0.113379,0.173041 -0.35437,0.170086 -0.469586,-0.0058 z m 0.833541,0.0367 c -0.119552,-0.132103 -0.105488,-0.241082 0.04654,-0.360668 0.194155,-0.152721 0.432024,-0.04574 0.432024,0.194293 0,0.256116 -0.302255,0.361196 -0.478566,0.166375 z M 56.83438,77.216235 c -0.245593,-0.245593 0.09626,-0.615141 0.367137,-0.396884 0.132969,0.107135 0.144929,0.229495 0.03597,0.368011 -0.12399,0.157628 -0.264304,0.167678 -0.403109,0.02887 z m 0.823092,-0.03251 c -0.233946,-0.297412 0.136822,-0.595111 0.405969,-0.325965 0.132919,0.132918 0.129228,0.213018 -0.0161,0.34955 -0.156288,0.146824 -0.260795,0.140502 -0.389866,-0.02358 z m 0.815657,0.03251 c -0.12326,-0.12326 -0.128062,-0.196659 -0.0227,-0.347081 0.139414,-0.199044 0.53481,-0.07495 0.53481,0.167843 0,0.110259 -0.186984,0.28166 -0.307265,0.28166 -0.05633,0 -0.148511,-0.04609 -0.204843,-0.102422 z m 0.857782,0.04711 c -0.127617,-0.07433 -0.121172,-0.385095 0.0094,-0.454994 0.146996,-0.07867 0.247485,-0.06495 0.361843,0.04941 0.240405,0.240404 -0.07094,0.580517 -0.371279,0.405585 z m 3.945797,1.22292 c 0.09435,-0.09435 0.08619,-2.056337 -0.0089,-2.135236 -0.04956,-0.04114 -0.454097,-0.05433 -1.36989,-0.04468 l -1.299555,0.0137 -0.01388,1.043274 c -0.0097,0.726293 0.0039,1.064711 0.04468,1.113835 0.07951,0.09581 2.552328,0.104315 2.647533,0.0091 z M 60.903186,78.06465 c -0.09408,-0.143579 -0.04145,-0.295499 0.135094,-0.389982 0.232424,-0.12439 0.482466,0.263071 0.292416,0.453122 -0.107166,0.107166 -0.338288,0.07303 -0.42751,-0.06314 z m 1.63804,0.01867 c -0.194966,-0.215435 0.18901,-0.540751 0.415951,-0.352406 0.0895,0.07428 0.09686,0.312282 0.01227,0.396875 -0.09586,0.09586 -0.322519,0.07233 -0.428216,-0.04447 z m -1.59858,-0.793173 c -0.234232,-0.164061 -0.09082,-0.586021 0.199169,-0.586021 0.148932,0 0.314348,0.175163 0.314348,0.332871 0,0.269211 -0.287935,0.411155 -0.513517,0.25315 z m 1.638746,0 c -0.238143,-0.166803 -0.08994,-0.586021 0.207172,-0.586021 0.15285,0 0.356677,0.238615 0.317879,0.372131 -0.07486,0.257606 -0.320039,0.357485 -0.525051,0.21389 z m 5.196205,0.707054 c -0.01289,-0.04929 -0.02342,-0.009 -0.02342,0.08962 0,0.09858 0.01055,0.13891 0.02342,0.08962 0.01289,-0.04929 0.01289,-0.129948 0,-0.179238 z M 54.263595,77.615679 c 0.08475,-0.08475 0.08475,-1.226251 0,-1.310998 -0.06512,-0.06512 -6.245698,-0.09439 -6.412535,-0.03037 -0.08823,0.03386 -0.122591,1.155647 -0.03941,1.286589 0.04336,0.06826 0.654801,0.08289 4.365103,0.10446 1.520422,0.0088 2.040712,-0.0036 2.086844,-0.04968 z m -6.186274,-0.348233 c -0.05633,-0.05633 -0.102422,-0.169911 -0.102422,-0.252397 0,-0.380447 0.532158,-0.483037 0.666925,-0.128571 0.131541,0.345979 -0.30493,0.640541 -0.564503,0.380968 z m 0.93319,0.0227 c -0.131642,-0.09221 -0.160561,-0.432263 -0.04492,-0.528236 0.361424,-0.299955 0.851821,0.152794 0.522358,0.482257 -0.144333,0.144334 -0.313724,0.160647 -0.477436,0.04598 z m 0.921796,0 c -0.193781,-0.135729 -0.151942,-0.458977 0.07486,-0.578355 0.167509,-0.08817 0.263524,-0.07223 0.402578,0.06682 0.310884,0.310883 -0.11399,0.7661 -0.477436,0.511532 z m 0.880331,-0.09915 c -0.107136,-0.16351 -0.06262,-0.344949 0.106894,-0.435669 0.295743,-0.158277 0.598272,0.154654 0.416989,0.431327 -0.12021,0.183464 -0.404972,0.185824 -0.523883,0.0043 z m 1.702361,0.034 c -0.279822,-0.309199 0.183071,-0.713952 0.478566,-0.418457 0.12304,0.123039 0.129997,0.245106 0.0227,0.398292 -0.100502,0.143486 -0.379507,0.15471 -0.501268,0.02016 z m 0.973006,0 c -0.116218,-0.12842 -0.108582,-0.35089 0.0143,-0.416656 0.319942,-0.171228 0.611876,0.157853 0.361843,0.407886 -0.127574,0.127574 -0.265714,0.130795 -0.376145,0.0088 z m -6.94701,-1.822234 c 0,-0.03976 0.156889,-0.333584 0.348643,-0.652939 0.191754,-0.319354 0.517964,-0.864587 0.72491,-1.211627 l 0.376267,-0.630983 0.414532,0.0215 c 0.701109,0.03636 16.737169,0.04275 17.29864,0.0069 0.63886,-0.0408 0.528986,-0.140302 1.192511,1.079937 0.275681,0.506988 0.569442,1.042782 0.652802,1.190653 l 0.151563,0.268857 H 57.12093 c -9.076087,0 -10.579935,-0.01028 -10.579935,-0.07229 z"
       id="path3857" />
    <path
       sodipodi:nodetypes="csssssssscccssssssssssccscssssscccccssccccscsccssssscscccssssscssccccsscccssccssssssscsssssssscsscccssccsssssssccsccsccsscsccccccccscccssssscssccssssscssccsssssssssssccsccccccccccssssssssssssscssccsscssscscsscssccccscccscccccsscccsscccssccccscsccsscccccccscscccsssscscscccsscsscssccsssscssccssssscssccccsccssssssssssscscsscccscssssssssscsssccsccssssscssccsssssssscscsscsss"
       style="fill:#1050a0;stroke-width:0.0512108"
       d="m 47.197162,82.004451 c -0.09204,-0.10586 -0.1574,-0.128028 -0.377472,-0.128028 -0.381957,0 -0.377122,0.0151 -0.420031,-1.311733 -0.03869,-1.196413 -0.165783,-1.650511 -0.296694,-1.060093 -0.249461,1.12509 -0.294898,0.977626 -0.132736,-0.430781 0.07387,-0.64159 0.108771,-0.800408 0.196927,-0.896189 0.121414,-0.131917 0.149866,-0.371012 0.201098,-1.689929 0.03858,-0.99314 -0.160765,-0.898354 1.785883,-0.849174 0.901312,0.02277 5.625515,0.03704 10.49823,0.0317 6.113951,-0.0067 8.899157,0.007 8.987508,0.04427 l 0.128027,0.05397 -0.01796,0.698282 c -0.01,0.388566 0.0023,0.698281 0.02773,0.698281 0.02513,0 0.06985,0.208008 0.09937,0.46224 0.04067,0.350255 0.07858,0.485445 0.15648,0.558018 0.106268,0.099 0.18678,0.598109 0.252596,1.565889 0.03016,0.443498 -0.04992,0.461553 -0.113571,0.02561 -0.04636,-0.317543 -0.107699,-0.419066 -0.241666,-0.399993 -0.109722,0.01562 -0.112482,0.03691 -0.151349,1.167507 -0.04359,1.267892 -0.04232,1.263427 -0.373644,1.316752 -0.169078,0.02721 -0.192134,0.02079 -0.144044,-0.04013 0.128196,-0.162393 0.1881,-5.964092 0.06243,-6.046126 -0.14985,-0.09782 -0.352938,0.04858 -1.222602,0.88134 L 65.195859,77.5235 h -0.615311 c -0.748579,0 -0.739871,-0.0069 -0.719622,0.568988 0.01423,0.404476 0.02113,0.426733 0.141191,0.454943 0.1196,0.0281 0.10621,0.04895 -0.25465,0.396478 -0.371317,0.357596 -0.383174,0.364359 -0.471878,0.269147 -0.110093,-0.118168 -8.227992,-0.161704 -8.368755,-0.04488 -0.0726,0.06025 -0.106844,1.937265 -0.03859,2.115134 0.02786,0.07261 0.350228,0.08109 3.111061,0.08179 3.227363,7.74e-4 3.314836,0.0069 3.117042,0.217466 -0.214317,0.22813 -0.177014,0.239392 0.846322,0.255521 0.528111,0.0083 -2.429002,0.02035 -6.571363,0.02674 l -7.531566,0.01159 -0.111319,0.128028 c -0.0727,0.08361 -0.164856,0.128027 -0.265628,0.128027 -0.100772,0 -0.192932,-0.04442 -0.265628,-0.128027 z m 4.414789,-0.691346 c 0.06574,-0.10399 0.06342,-1.057339 -0.0029,-1.181217 -0.05088,-0.09507 -0.125958,-0.09906 -1.865538,-0.09906 -2.145726,0 -1.973795,-0.05499 -1.972775,0.630992 0.0011,0.716649 -0.01427,0.693841 0.478456,0.711311 1.372709,0.04867 3.315412,0.01283 3.36274,-0.06203 z m -0.740734,-0.369872 c -0.104947,-0.149833 -0.100701,-0.261008 0.01393,-0.364749 0.192733,-0.174422 0.520879,-0.04477 0.520879,0.205803 0,0.252492 -0.388429,0.367935 -0.534811,0.158946 z m -2.708466,-0.06412 c -0.156568,-0.156567 0.07272,-0.39017 0.276115,-0.281316 0.159589,0.08541 0.117492,0.326156 -0.06064,0.346812 -0.07392,0.0086 -0.170877,-0.0209 -0.215471,-0.0655 z m 0.889378,-0.02354 c -0.0725,-0.135458 -0.07007,-0.143462 0.07158,-0.236274 0.15954,-0.104536 0.336304,-0.02442 0.336304,0.152413 0,0.195287 -0.31373,0.259791 -0.407885,0.08386 z m 0.981447,0.0376 c -0.162548,-0.162547 0.01262,-0.382286 0.226914,-0.284648 0.152432,0.06945 0.186556,0.171128 0.08988,0.267803 -0.09388,0.09388 -0.232396,0.101244 -0.316795,0.01684 z m 4.253797,0.407127 c 0.057,-0.14897 0.04007,-2.969657 -0.01825,-3.039924 -0.06137,-0.07395 -1.884645,-0.109313 -2.065137,-0.04005 -0.08443,0.0324 -0.129555,3.027156 -0.04686,3.109847 0.06769,0.06769 2.103846,0.03914 2.130252,-0.02987 z m -1.394392,-0.819373 c -0.751682,-0.385443 -0.316522,-1.533363 0.496206,-1.30896 0.648114,0.178953 0.749979,1.027489 0.157764,1.314174 -0.286041,0.138472 -0.375143,0.137762 -0.65397,-0.0052 z M 51.630998,79.49093 c 0.05915,-0.15414 0.03413,-1.175733 -0.03037,-1.240235 -0.08811,-0.08811 -3.681014,-0.08811 -3.76912,0 -0.08452,0.08452 -0.08452,1.175265 0,1.259786 0.105259,0.10526 3.758809,0.08646 3.799489,-0.01955 z m -0.78829,-0.328682 c -0.118085,-0.118085 -0.124918,-0.168838 -0.04354,-0.323435 0.165829,-0.315052 0.606864,-0.219289 0.606864,0.131767 0,0.277842 -0.356014,0.398973 -0.56332,0.191668 z m -2.661302,-0.09932 c -0.06486,-0.121197 0.0084,-0.310372 0.120228,-0.310372 0.125756,0 0.263706,0.201549 0.203596,0.29746 -0.0813,0.129721 -0.257549,0.136749 -0.323824,0.01291 z m 0.896058,-5.81e-4 c -0.04917,-0.07956 0.01501,-0.244093 0.109331,-0.280289 0.111817,-0.04291 0.230184,0.06698 0.211677,0.196516 -0.01676,0.117314 -0.260902,0.181028 -0.321008,0.08377 z m 0.928414,-0.02531 c -0.06798,-0.177158 0.118234,-0.340837 0.256867,-0.225782 0.04004,0.03323 0.06592,0.108521 0.05752,0.167319 -0.01905,0.133335 -0.267902,0.179609 -0.31439,0.05846 z m 5.896464,-0.550728 c 0.04375,-0.04375 0.06145,-0.360352 0.06145,-1.099233 0,-1.207336 0.03129,-1.143804 -0.563319,-1.143804 -0.594609,0 -0.56332,-0.06353 -0.56332,1.143804 0,1.225528 -0.03147,1.160686 0.56332,1.160686 0.274263,0 0.463596,-0.02318 0.501866,-0.06145 z m -0.734774,-0.421616 c -0.08674,-0.132375 -0.05487,-0.254938 0.09963,-0.383156 0.198799,-0.164988 0.513101,0.158939 0.368439,0.379721 -0.113717,0.173554 -0.355437,0.175329 -0.468066,0.0034 z m 0.06389,-0.968282 c -0.04057,-0.105718 0.02813,-0.175987 0.164779,-0.168539 0.173808,0.0095 0.192739,0.124054 0.03068,0.18567 -0.169711,0.06453 -0.163927,0.06503 -0.195455,-0.01713 z m 4.772809,1.380787 c 0.04077,-0.04912 0.05434,-0.387542 0.04468,-1.113835 l -0.01388,-1.043274 h -1.766776 -1.766774 l -0.01388,1.043274 c -0.0097,0.726293 0.0039,1.064712 0.04468,1.113835 0.08651,0.104236 3.385449,0.104236 3.471958,0 z m -3.197949,-0.412505 c -0.163322,-0.249263 0.140208,-0.527858 0.380134,-0.348905 0.168565,0.125728 0.194589,0.248019 0.07977,0.374886 -0.127453,0.140834 -0.359184,0.127742 -0.459909,-0.02598 z m 0.818667,0.01867 c -0.08748,-0.09666 -0.08915,-0.11793 -0.01914,-0.243252 0.10993,-0.196789 0.368621,-0.216975 0.485943,-0.03792 0.186229,0.284221 -0.234628,0.537716 -0.466801,0.28117 z m 0.816311,-0.02443 c -0.152248,-0.23236 0.09374,-0.513073 0.335993,-0.383423 0.175128,0.09373 0.227403,0.246009 0.133594,0.389179 -0.11338,0.173042 -0.35437,0.170086 -0.469587,-0.0058 z m 0.833542,0.0367 c -0.119552,-0.132103 -0.105488,-0.241081 0.04654,-0.360668 0.194153,-0.152721 0.432023,-0.04574 0.432023,0.194293 0,0.256117 -0.302256,0.361196 -0.478565,0.166375 z M 56.83438,77.216284 c -0.245593,-0.245594 0.09626,-0.615141 0.367137,-0.396885 0.132969,0.107135 0.144929,0.229495 0.03597,0.368011 -0.12399,0.157628 -0.264304,0.167678 -0.403109,0.02887 z m 0.823092,-0.03251 c -0.233946,-0.297412 0.136822,-0.595111 0.405969,-0.325964 0.132919,0.132917 0.129228,0.213017 -0.0161,0.349549 -0.156288,0.146825 -0.260795,0.140503 -0.389866,-0.02358 z m 0.815657,0.03251 c -0.12326,-0.123261 -0.128062,-0.196659 -0.0227,-0.347082 0.139414,-0.199043 0.53481,-0.07495 0.53481,0.167844 0,0.110258 -0.186984,0.281659 -0.307265,0.281659 -0.05633,0 -0.148511,-0.04609 -0.204843,-0.102421 z m 0.857782,0.04711 c -0.127617,-0.07433 -0.121172,-0.385096 0.0094,-0.454995 0.146996,-0.07867 0.247485,-0.06495 0.361843,0.04941 0.240405,0.240404 -0.07094,0.580516 -0.371279,0.405585 z m 3.945797,1.22292 c 0.09435,-0.09435 0.08619,-2.056338 -0.0089,-2.135237 -0.04956,-0.04114 -0.454097,-0.05433 -1.36989,-0.04468 l -1.299555,0.0137 -0.01388,1.043274 c -0.0097,0.726294 0.0039,1.064712 0.04468,1.113835 0.07951,0.09581 2.552328,0.104316 2.647533,0.0091 z m -2.373522,-0.421616 c -0.09408,-0.143579 -0.04145,-0.295498 0.135094,-0.389981 0.232424,-0.12439 0.482466,0.263071 0.292416,0.453121 -0.107166,0.107167 -0.338288,0.07303 -0.42751,-0.06314 z m 1.63804,0.01867 c -0.194966,-0.215435 0.18901,-0.54075 0.415951,-0.352406 0.0895,0.07428 0.09686,0.312282 0.01227,0.396875 -0.09586,0.09586 -0.322519,0.07233 -0.428216,-0.04447 z M 61.01961,77.065617 c -0.03243,-0.124024 -0.0012,-0.156598 0.150625,-0.156598 0.09332,0 0.119492,0.02804 0.119492,0.128027 0,0.162818 -0.228687,0.187006 -0.270117,0.02857 z m 1.65281,-0.0046 c 0,-0.08279 0.09519,-0.152011 0.209032,-0.152011 0.112779,0 0.04042,0.194165 -0.081,0.217378 -0.09721,0.01858 -0.128028,0.0028 -0.128028,-0.06537 z m 5.105177,0.93622 c -0.01289,-0.04929 -0.02342,-0.009 -0.02342,0.08962 0,0.09858 0.01055,0.138909 0.02342,0.08962 0.01289,-0.04929 0.01289,-0.129948 0,-0.17924 z M 54.263595,77.615679 c 0.08475,-0.08475 0.08475,-1.226251 0,-1.310998 -0.06512,-0.06512 -6.245698,-0.09439 -6.412535,-0.03037 -0.08823,0.03386 -0.122591,1.155647 -0.03941,1.286589 0.04336,0.06826 0.654801,0.08289 4.365103,0.10446 1.520422,0.0088 2.040712,-0.0036 2.086844,-0.04968 z m -3.450957,-0.424677 c -0.107136,-0.16351 -0.06262,-0.344949 0.106894,-0.435669 0.295743,-0.158277 0.598272,0.154654 0.416989,0.431327 -0.12021,0.183464 -0.404972,0.185824 -0.523883,0.0043 z m 2.675367,0.034 c -0.116218,-0.12842 -0.108582,-0.35089 0.0143,-0.416656 0.319942,-0.171228 0.611876,0.157853 0.361843,0.407886 -0.127574,0.127574 -0.265714,0.130795 -0.376145,0.0088 z m -5.247292,-0.09652 c -0.171107,-0.03269 -0.134716,-0.239524 0.04584,-0.260512 0.172303,-0.02003 0.291331,0.110742 0.20046,0.220235 -0.03506,0.04225 -0.07821,0.07368 -0.09589,0.06984 -0.01767,-0.0038 -0.08536,-0.01714 -0.150405,-0.02957 z m 0.80963,-0.04026 c -0.09871,-0.118936 0.02972,-0.232405 0.220342,-0.194684 0.110419,0.02185 0.139962,0.0535 0.128028,0.13714 -0.01956,0.137071 -0.250684,0.175249 -0.34837,0.05754 z m 1.007132,0.04266 c -0.07423,-0.07423 -0.02796,-0.211619 0.08108,-0.240747 0.129786,-0.03467 0.253624,0.08585 0.20865,0.203049 -0.02815,0.07336 -0.228059,0.09937 -0.289734,0.0377 z m 2.528264,-0.04043 c -0.08716,-0.105028 -0.02195,-0.181482 0.154794,-0.181482 0.12651,0 0.15061,0.02049 0.15061,0.128028 0,0.148328 -0.197916,0.182968 -0.305404,0.05345 z m 13.841753,4.861864 -0.111349,-0.127102 h 0.354601 c 0.376901,0 0.383712,0.0035 0.301588,0.156998 -0.08083,0.151039 -0.401758,0.133428 -0.54484,-0.0299 z M 65.012729,81.0758 c -0.05026,-0.05026 -0.04339,-1.259007 0.0076,-1.339388 0.03064,-0.0483 0.177926,-0.06202 0.549733,-0.05121 l 0.507877,0.01477 v 0.691348 0.691346 l -0.514698,0.01448 c -0.283082,0.008 -0.530817,-0.0015 -0.550516,-0.02134 z m 0.881393,-0.256874 c 0.35528,-0.248849 0.08425,-0.950459 -0.359095,-0.929564 l -0.327669,0.01544 -0.03321,0.23045 c -0.0521,0.36151 0.0033,0.666797 0.1304,0.718157 0.177988,0.07194 0.461283,0.05537 0.589574,-0.03449 z m -10.721191,0.124308 c -0.214045,-0.305591 0.199574,-0.632632 0.450057,-0.355851 0.166073,0.183508 0.0305,0.469668 -0.222512,0.469668 -0.0947,0 -0.176472,-0.0409 -0.227545,-0.113817 z m 0.838927,0.0082 c -0.13553,-0.135527 -0.11078,-0.291839 0.06716,-0.4242 l 0.140829,-0.104757 0.140829,0.104683 c 0.184988,0.137506 0.210071,0.339843 0.05554,0.448077 -0.15707,0.110018 -0.277644,0.10292 -0.404365,-0.0238 z m 0.79982,-0.0082 c -0.10596,-0.151281 -0.100543,-0.261151 0.01817,-0.368589 0.139565,-0.126305 0.367745,-0.08687 0.460766,0.07962 0.167011,0.298929 -0.282146,0.56993 -0.478939,0.288969 z m 0.824408,0.02017 c -0.177124,-0.195721 -0.06585,-0.46967 0.190772,-0.46967 0.299707,0 0.434631,0.262851 0.236583,0.460898 -0.127812,0.127813 -0.316126,0.131678 -0.427355,0.0088 z m 0.814341,-0.02017 c -0.214044,-0.305591 0.199573,-0.632632 0.450057,-0.355851 0.166072,0.183508 0.0305,0.469668 -0.222512,0.469668 -0.0947,0 -0.176472,-0.0409 -0.227545,-0.113817 z m 0.824408,0.02017 c -0.177641,-0.19629 -0.05061,-0.46967 0.218231,-0.46967 0.280423,0 0.415722,0.330912 0.197728,0.4836 -0.15151,0.106121 -0.312184,0.100741 -0.415959,-0.01394 z m 0.819373,0 c -0.111188,-0.122863 -0.107567,-0.279515 0.0089,-0.384915 0.137867,-0.124768 0.350046,-0.107402 0.444242,0.03636 0.191575,0.292379 -0.218511,0.607814 -0.45314,0.348554 z m 0.819374,0 c -0.177125,-0.195721 -0.06585,-0.46967 0.190771,-0.46967 0.299707,0 0.434631,0.262851 0.236584,0.460898 -0.127813,0.127813 -0.316126,0.131678 -0.427355,0.0088 z m 0.794759,-0.02487 c -0.140545,-0.149601 -0.139556,-0.195599 0.0072,-0.333445 0.229331,-0.215444 0.496006,-0.119339 0.496006,0.178751 0,0.276737 -0.301462,0.369416 -0.503181,0.154694 z m 0.843989,0.02487 c -0.176224,-0.194726 -0.0659,-0.46967 0.188467,-0.46967 0.202535,0 0.290099,0.07798 0.290099,0.258361 0,0.263123 -0.308429,0.399309 -0.478566,0.211309 z M 55.310857,79.98003 c -0.135711,-0.05455 -0.145054,-0.114892 -0.03485,-0.225093 0.135863,-0.135864 0.397761,0.05691 0.276242,0.203328 -0.07018,0.08456 -0.08241,0.08567 -0.24139,0.02177 z m 1.601543,0.01134 c -0.01475,-0.01475 -0.02681,-0.08211 -0.02681,-0.149704 0,-0.167458 0.27307,-0.150688 0.297175,0.01825 0.01481,0.103847 -0.195645,0.206173 -0.270365,0.131454 z m 0.87919,0.0056 c -0.06063,-0.01572 -0.08716,-0.0623 -0.07682,-0.134889 0.01977,-0.138814 0.280774,-0.188352 0.329083,-0.06246 0.02982,0.0777 -0.06101,0.23958 -0.127515,0.227285 -0.01767,-0.0033 -0.07381,-0.01674 -0.124751,-0.02994 z m 0.76689,0.0017 c -0.06604,-0.06604 -0.0332,-0.262529 0.04917,-0.294134 0.103524,-0.03973 0.223958,0.05461 0.223958,0.175434 0,0.117367 -0.191313,0.200513 -0.273124,0.1187 z M 59.362232,79.956 c -0.04596,-0.119775 0.01893,-0.23045 0.135113,-0.23045 0.146115,0 0.193985,0.151107 0.07535,0.237855 -0.122331,0.08945 -0.173994,0.08763 -0.210463,-0.0074 z m 0.813658,0.0429 c -0.09811,-0.03959 -0.07605,-0.212093 0.0347,-0.271363 0.116867,-0.06255 0.239821,-0.0254 0.282293,0.08528 0.05943,0.154862 -0.125432,0.263379 -0.316991,0.186082 z m 0.773629,-0.04355 c -0.04169,-0.108655 0.08013,-0.237707 0.207177,-0.219466 0.124311,0.01784 0.174397,0.188015 0.07406,0.251605 -0.10851,0.06877 -0.248657,0.05275 -0.281232,-0.03214 z m 0.860081,0.03214 c -0.112309,-0.07117 -0.04774,-0.234553 0.09948,-0.251723 0.171875,-0.02005 0.290783,0.110877 0.200022,0.220236 -0.07076,0.08526 -0.194172,0.09824 -0.2995,0.03149 z m 0.778667,-0.03214 c -0.06911,-0.180111 0.21257,-0.306774 0.340208,-0.152981 0.05086,0.06128 0.05086,0.09235 0,0.153633 -0.08262,0.09955 -0.301917,0.09913 -0.340208,-5.81e-4 z m -6.52205,-0.101771 c 0,-0.116875 0.01875,-0.132672 0.140829,-0.118626 0.101288,0.01165 0.140831,0.04496 0.140831,0.118626 0,0.07366 -0.03954,0.106971 -0.140831,0.118627 -0.122076,0.01405 -0.140829,-0.0017 -0.140829,-0.118627 z m -9.525222,-4.450834 c 0,-0.03976 0.156889,-0.333584 0.348643,-0.652939 0.191754,-0.319354 0.517964,-0.864587 0.72491,-1.211627 l 0.376267,-0.630983 0.414532,0.0215 c 0.701109,0.03636 16.737169,0.04275 17.29864,0.0069 0.63886,-0.0408 0.528986,-0.140302 1.192511,1.079937 0.275681,0.506988 0.569442,1.042782 0.652802,1.190653 l 0.151563,0.268857 H 57.12093 c -9.076087,0 -10.579935,-0.01028 -10.579935,-0.07229 z"
       id="path3855" />
    <path
       sodipodi:nodetypes="ssssssscccscsssccscscscssccsssssssccsssssssssssscsscsscccccccscscccssssssssscscscccsscsscssccsssscssccssssscssccccsccsssscscccssssscsscccssccssssssscscsscccscssssssssscsssccsccssssscssccsssssscsssssssscsscccssccccscccssccscssscssccssssssssscsscccssccccscccssccsssssscssssccscccscccccsscccsscccssccsccsssssscsscc"
       style="fill:#202020;stroke-width:0.0512108"
       d="m 47.235999,82.052005 c -0.04426,-0.04426 -0.08047,-0.101875 -0.08047,-0.128028 0,-0.02615 -0.135448,-0.04755 -0.300995,-0.04755 -0.422118,0 -0.411456,0.03075 -0.454871,-1.311733 -0.03869,-1.196413 -0.165783,-1.650511 -0.296694,-1.060093 -0.249461,1.12509 -0.294898,0.977626 -0.132736,-0.430781 0.07337,-0.637258 0.109164,-0.801054 0.195825,-0.896189 0.118951,-0.130585 0.156351,-0.436913 0.213633,-1.749772 0.03374,-0.773355 0.100617,-0.986898 0.257928,-0.823612 0.02756,0.0286 0.075,1.344997 0.110701,3.0715 0.07169,3.467274 0.0042,3.14947 0.669068,3.14947 h 0.505372 l -0.160762,0.153633 c -0.17936,0.171406 -0.397418,0.201734 -0.525995,0.07316 z m 19.191493,-0.09969 -0.111349,-0.127102 h 0.354601 c 0.376901,0 0.383712,0.0035 0.301588,0.156998 -0.08083,0.151039 -0.401758,0.133428 -0.54484,-0.0299 z m -5.547453,-0.124079 c 0,-0.02651 0.02305,-0.06243 0.05121,-0.07984 0.02817,-0.0174 0.05121,-0.0078 0.05121,0.02145 0,0.03424 0.341126,0.05848 0.960205,0.06824 l 0.960202,0.01514 -1.011414,0.01161 c -0.606067,0.0069 -1.011415,-0.0077 -1.011415,-0.03659 z m 6.381796,-0.0073 c 0.07465,-0.09456 0.121027,-1.58275 0.126562,-4.061195 0.0047,-2.102379 0.0107,-2.058526 -0.273434,-1.998841 -0.07746,0.01627 -0.140829,0.0076 -0.140829,-0.01918 0,-0.0831 0.512915,-0.106514 0.660126,-0.03014 l 0.133443,0.06923 -0.01787,0.692114 c -0.0099,0.384878 0.0024,0.692115 0.02783,0.692115 0.02513,0 0.06985,0.208008 0.09937,0.46224 0.04067,0.350255 0.07858,0.485444 0.15648,0.558016 0.106268,0.099 0.18678,0.598111 0.252596,1.565891 0.03016,0.443498 -0.04992,0.461553 -0.113571,0.02561 -0.04636,-0.317543 -0.107699,-0.419066 -0.241666,-0.399993 -0.109722,0.01562 -0.112482,0.03691 -0.151349,1.167507 -0.04359,1.267892 -0.04232,1.263427 -0.373644,1.316752 -0.169078,0.02721 -0.192134,0.02079 -0.144044,-0.04013 z m 0.515762,-3.823719 c -0.01289,-0.04929 -0.02342,-0.009 -0.02342,0.08962 0,0.09858 0.01055,0.138909 0.02342,0.08962 0.01289,-0.04929 0.01289,-0.129947 0,-0.179237 z m -2.764868,3.078598 c -0.05026,-0.05026 -0.04339,-1.259007 0.0076,-1.339388 0.03064,-0.0483 0.177926,-0.06202 0.549733,-0.05121 l 0.507877,0.01477 v 0.691348 0.691346 l -0.514698,0.01448 c -0.283082,0.008 -0.530817,-0.0015 -0.550516,-0.02134 z m 0.881393,-0.256874 c 0.35528,-0.248849 0.08425,-0.950459 -0.359095,-0.929564 l -0.327669,0.01544 -0.03321,0.23045 c -0.0521,0.36151 0.0033,0.666797 0.1304,0.718157 0.177988,0.07194 0.461283,0.05537 0.589574,-0.03449 z m -15.022905,0.124308 c -0.104947,-0.149833 -0.100701,-0.261008 0.01393,-0.364749 0.192733,-0.174422 0.520879,-0.04477 0.520879,0.205803 0,0.252492 -0.388429,0.367935 -0.534811,0.158946 z m 4.301714,0 c -0.214045,-0.305591 0.199574,-0.632632 0.450057,-0.355851 0.166073,0.183508 0.0305,0.469668 -0.222512,0.469668 -0.0947,0 -0.176472,-0.0409 -0.227545,-0.113817 z m 0.838927,0.0082 c -0.13553,-0.135527 -0.11078,-0.291839 0.06716,-0.4242 l 0.140829,-0.104757 0.140829,0.104683 c 0.184988,0.137506 0.210071,0.339843 0.05554,0.448077 -0.15707,0.110018 -0.277644,0.10292 -0.404365,-0.0238 z m 0.79982,-0.0082 c -0.10596,-0.151281 -0.100543,-0.261151 0.01817,-0.368589 0.139565,-0.126305 0.367745,-0.08687 0.460766,0.07962 0.167011,0.298929 -0.282146,0.56993 -0.478939,0.288969 z m 0.824408,0.02017 c -0.177124,-0.195721 -0.06585,-0.46967 0.190772,-0.46967 0.299707,0 0.434631,0.262851 0.236583,0.460898 -0.127812,0.127813 -0.316126,0.131678 -0.427355,0.0088 z m 0.814341,-0.02017 c -0.214044,-0.305591 0.199573,-0.632632 0.450057,-0.355851 0.166072,0.183508 0.0305,0.469668 -0.222512,0.469668 -0.0947,0 -0.176472,-0.0409 -0.227545,-0.113817 z m 0.824408,0.02017 c -0.177641,-0.19629 -0.05061,-0.46967 0.218231,-0.46967 0.27372,0 0.39741,0.272612 0.209124,0.460898 -0.127813,0.127813 -0.316126,0.131678 -0.427355,0.0088 z m 0.819373,0 c -0.111188,-0.122863 -0.107567,-0.279515 0.0089,-0.384915 0.137867,-0.124768 0.350046,-0.107402 0.444242,0.03636 0.191575,0.292379 -0.218511,0.607814 -0.45314,0.348554 z m 0.819374,0 c -0.177125,-0.195721 -0.06585,-0.46967 0.190771,-0.46967 0.299707,0 0.434631,0.262851 0.236584,0.460898 -0.127813,0.127813 -0.316126,0.131678 -0.427355,0.0088 z m 0.794759,-0.02487 c -0.140545,-0.149601 -0.139556,-0.195599 0.0072,-0.333445 0.229331,-0.215444 0.496006,-0.119339 0.496006,0.178751 0,0.276737 -0.301462,0.369416 -0.503181,0.154694 z m 0.843989,0.02487 c -0.176224,-0.194726 -0.0659,-0.46967 0.188467,-0.46967 0.202535,0 0.290099,0.07798 0.290099,0.258361 0,0.263123 -0.308429,0.399309 -0.478566,0.211309 z m -14.389579,-0.08429 c -0.156568,-0.156567 0.07272,-0.39017 0.276115,-0.281316 0.159589,0.08541 0.117492,0.326156 -0.06064,0.346812 -0.07392,0.0086 -0.170877,-0.0209 -0.215471,-0.0655 z m 0.889378,-0.02354 c -0.0725,-0.135458 -0.07007,-0.143462 0.07158,-0.236274 0.15954,-0.104536 0.336304,-0.02442 0.336304,0.152413 0,0.195287 -0.31373,0.259791 -0.407885,0.08386 z m 0.981447,0.0376 c -0.162548,-0.162547 0.01262,-0.382286 0.226914,-0.284648 0.152432,0.06945 0.186556,0.171128 0.08988,0.267803 -0.09388,0.09388 -0.232396,0.101244 -0.316795,0.01684 z m 2.859405,-0.412246 c -0.751682,-0.385443 -0.316522,-1.533363 0.496206,-1.30896 0.648114,0.178953 0.749979,1.027489 0.157764,1.314174 -0.286041,0.138472 -0.375143,0.137762 -0.65397,-0.0052 z m 2.417876,-0.500903 c -0.135711,-0.05455 -0.145054,-0.114892 -0.03485,-0.225093 0.135863,-0.135864 0.397761,0.05691 0.276242,0.203328 -0.07018,0.08456 -0.08241,0.08567 -0.24139,0.02177 z m 1.601543,0.01134 c -0.01475,-0.01475 -0.02681,-0.08211 -0.02681,-0.149704 0,-0.167458 0.27307,-0.150688 0.297175,0.01825 0.01481,0.103847 -0.195645,0.206173 -0.270365,0.131454 z m 0.87919,0.0056 c -0.06063,-0.01572 -0.08716,-0.0623 -0.07682,-0.134889 0.01977,-0.138814 0.280774,-0.188352 0.329083,-0.06246 0.02982,0.0777 -0.06101,0.23958 -0.127515,0.227285 -0.01767,-0.0033 -0.07381,-0.01674 -0.124751,-0.02994 z m 0.76689,0.0017 c -0.06604,-0.06604 -0.0332,-0.262529 0.04917,-0.294134 0.103524,-0.03973 0.223958,0.05461 0.223958,0.175434 0,0.117367 -0.191313,0.200513 -0.273124,0.1187 z m 0.803752,-0.04267 c -0.04596,-0.119775 0.01893,-0.23045 0.135113,-0.23045 0.146115,0 0.193985,0.151107 0.07535,0.237855 -0.122331,0.08945 -0.173994,0.08763 -0.210463,-0.0074 z m 0.813658,0.0429 c -0.09811,-0.03959 -0.07605,-0.212093 0.0347,-0.271363 0.116867,-0.06255 0.239821,-0.0254 0.282293,0.08528 0.05943,0.154862 -0.125432,0.263379 -0.316991,0.186082 z m 0.773629,-0.04355 c -0.04169,-0.108655 0.08013,-0.237707 0.207177,-0.219466 0.124311,0.01784 0.174397,0.188015 0.07406,0.251605 -0.10851,0.06877 -0.248657,0.05275 -0.281232,-0.03214 z M 61.8096,79.9875 c -0.112309,-0.07117 -0.04774,-0.234553 0.09948,-0.251723 0.171875,-0.02005 0.290783,0.110877 0.200022,0.220236 -0.07076,0.08526 -0.194172,0.09824 -0.2995,0.03149 z m 0.778667,-0.03214 c -0.06911,-0.180111 0.21257,-0.306774 0.340208,-0.152981 0.05086,0.06128 0.05086,0.09235 0,0.153633 -0.08262,0.09955 -0.301917,0.09913 -0.340208,-5.81e-4 z m -6.52205,-0.101771 c 0,-0.116875 0.01875,-0.132672 0.140829,-0.118626 0.101288,0.01165 0.140831,0.04496 0.140831,0.118626 0,0.07366 -0.03954,0.106971 -0.140831,0.118627 -0.122076,0.01405 -0.140829,-0.0017 -0.140829,-0.118627 z M 50.842708,79.16226 c -0.118085,-0.118085 -0.124918,-0.168839 -0.04354,-0.323435 0.165829,-0.315052 0.606864,-0.21929 0.606864,0.131767 0,0.277841 -0.356014,0.398972 -0.56332,0.191668 z m -2.661302,-0.09932 c -0.06486,-0.121197 0.0084,-0.310372 0.120228,-0.310372 0.125756,0 0.263706,0.201549 0.203596,0.29746 -0.0813,0.129721 -0.257549,0.136749 -0.323824,0.01291 z m 0.896058,-5.81e-4 c -0.04917,-0.07956 0.01501,-0.244093 0.109331,-0.28029 0.111817,-0.04291 0.230184,0.06698 0.211677,0.196516 -0.01676,0.117315 -0.260902,0.181029 -0.321008,0.08377 z m 0.928414,-0.02531 c -0.06798,-0.177157 0.118234,-0.340837 0.256867,-0.225781 0.04004,0.03323 0.06592,0.108521 0.05752,0.167318 -0.01905,0.133335 -0.267902,0.17961 -0.31439,0.05846 z m 5.16169,-0.972343 c -0.08674,-0.132374 -0.05487,-0.254937 0.09963,-0.383155 0.198799,-0.164988 0.513101,0.158939 0.368439,0.379721 -0.113717,0.173554 -0.355437,0.175327 -0.468066,0.0034 z m 1.638747,0 c -0.163322,-0.249262 0.140208,-0.527857 0.380134,-0.348904 0.168565,0.125727 0.194589,0.248018 0.07977,0.374886 -0.127453,0.140833 -0.359184,0.127741 -0.459909,-0.02598 z m 0.818667,0.01867 c -0.08748,-0.09666 -0.08915,-0.11793 -0.01914,-0.243251 0.10993,-0.19679 0.368621,-0.216975 0.485943,-0.03792 0.186229,0.284221 -0.234628,0.537715 -0.466801,0.281169 z m 0.816311,-0.02443 c -0.152248,-0.232361 0.09374,-0.513073 0.335993,-0.383423 0.175128,0.09373 0.227403,0.246009 0.133594,0.389179 -0.11338,0.17304 -0.35437,0.170087 -0.469587,-0.0058 z m 0.833542,0.0367 c -0.119552,-0.132103 -0.105488,-0.241082 0.04654,-0.360668 0.194153,-0.152721 0.432023,-0.04574 0.432023,0.194293 0,0.256115 -0.302256,0.361195 -0.478565,0.166375 z m 1.628351,-0.03094 c -0.09408,-0.143579 -0.04145,-0.295499 0.135094,-0.389982 0.232424,-0.12439 0.482466,0.263071 0.292416,0.453122 -0.107166,0.107165 -0.338288,0.07303 -0.42751,-0.06314 z m 1.63804,0.01867 c -0.194966,-0.215435 0.18901,-0.54075 0.415951,-0.352406 0.0895,0.07428 0.09686,0.312282 0.01227,0.396874 -0.09586,0.09586 -0.322519,0.07233 -0.428216,-0.04447 z m -11.728588,-0.89238 c -0.107136,-0.16351 -0.06262,-0.344949 0.106894,-0.435669 0.295743,-0.158277 0.598272,0.154654 0.416989,0.431327 -0.12021,0.183464 -0.404972,0.185824 -0.523883,0.0043 z m 2.675367,0.034 c -0.116218,-0.12842 -0.108582,-0.35089 0.0143,-0.416656 0.319942,-0.171228 0.611876,0.157853 0.361843,0.407886 -0.127574,0.127574 -0.265714,0.130795 -0.376145,0.0088 z m 3.346375,-0.0088 c -0.245593,-0.245593 0.09626,-0.615141 0.367137,-0.396884 0.132969,0.107135 0.144929,0.229495 0.03597,0.368011 -0.12399,0.157628 -0.264304,0.167678 -0.403109,0.02887 z m 0.823092,-0.03251 c -0.233946,-0.297412 0.136822,-0.595111 0.405969,-0.325965 0.132919,0.132918 0.129228,0.213018 -0.0161,0.34955 -0.156288,0.146824 -0.260795,0.140502 -0.389866,-0.02358 z m 0.815657,0.03251 c -0.12326,-0.12326 -0.128062,-0.196659 -0.0227,-0.347081 0.139414,-0.199044 0.53481,-0.07495 0.53481,0.167843 0,0.110259 -0.186984,0.28166 -0.307265,0.28166 -0.05633,0 -0.148511,-0.04609 -0.204843,-0.102422 z m 0.857782,0.04711 c -0.127617,-0.07433 -0.121172,-0.385095 0.0094,-0.454994 0.146996,-0.07867 0.247485,-0.06495 0.361843,0.04941 0.240405,0.240404 -0.07094,0.580517 -0.371279,0.405585 z m -11.090198,-0.13486 c -0.171107,-0.03269 -0.134716,-0.239524 0.04584,-0.260512 0.172303,-0.02003 0.291331,0.110742 0.20046,0.220235 -0.03506,0.04225 -0.07821,0.07368 -0.09589,0.06984 -0.01767,-0.0038 -0.08536,-0.01714 -0.150405,-0.02957 z m 0.80963,-0.04026 c -0.09871,-0.118936 0.02972,-0.232405 0.220342,-0.194684 0.110419,0.02185 0.139962,0.0535 0.128028,0.13714 -0.01956,0.137071 -0.250684,0.175249 -0.34837,0.05754 z m 1.007132,0.04266 c -0.07423,-0.07423 -0.02796,-0.211619 0.08108,-0.240747 0.129786,-0.03467 0.253624,0.08585 0.20865,0.203049 -0.02815,0.07336 -0.228059,0.09937 -0.289734,0.0377 z m 2.528264,-0.04043 c -0.08716,-0.105028 -0.02195,-0.181482 0.154794,-0.181482 0.12651,0 0.15061,0.02049 0.15061,0.128028 0,0.148328 -0.197916,0.182968 -0.305404,0.05345 z m 2.645716,0.0059 c -0.04057,-0.105718 0.02813,-0.175988 0.164779,-0.168539 0.173808,0.0095 0.192739,0.124054 0.03068,0.18567 -0.169711,0.06452 -0.163927,0.06503 -0.195455,-0.01713 z m 5.788155,-0.0308 c -0.03243,-0.124024 -0.0012,-0.156597 0.150625,-0.156597 0.09332,0 0.119492,0.02804 0.119492,0.128027 0,0.162817 -0.228687,0.187006 -0.270117,0.02857 z m 1.65281,-0.0046 c 0,-0.08279 0.09519,-0.15201 0.209032,-0.15201 0.112779,0 0.04042,0.194165 -0.081,0.217377 -0.09721,0.01858 -0.128028,0.0028 -0.128028,-0.06537 z"
       id="path3851" />
  </g>
</svg>
